<svg width="25" height="24" viewBox="0 0 25 24" fill="none" xmlns="http://www.w3.org/2000/svg">
<path d="M1.5 23H0.75C0.75 23.2736 0.899024 23.5256 1.13884 23.6573C1.37866 23.7891 1.67121 23.7798 1.90217 23.6331L1.5 23ZM7.61111 11.8971C7.1969 11.8971 6.86111 12.2328 6.86111 12.6471C6.86111 13.0613 7.1969 13.3971 7.61111 13.3971V11.8971ZM17.3889 13.3971C17.8031 13.3971 18.1389 13.0613 18.1389 12.6471C18.1389 12.2328 17.8031 11.8971 17.3889 11.8971V13.3971ZM7.61111 6.72059C7.1969 6.72059 6.86111 7.05638 6.86111 7.47059C6.86111 7.8848 7.1969 8.22059 7.61111 8.22059V6.72059ZM17.3889 8.22059C17.8031 8.22059 18.1389 7.8848 18.1389 7.47059C18.1389 7.05638 17.8031 6.72059 17.3889 6.72059V8.22059ZM6.62933 19.7414L7.03151 20.3744L6.62933 19.7414ZM4.5 1.75H20.5V0.25H4.5V1.75ZM22.75 4V16.1177H24.25V4H22.75ZM20.5 18.3676H8.77426V19.8676H20.5V18.3676ZM6.22716 19.1083L1.09783 22.3669L1.90217 23.6331L7.03151 20.3744L6.22716 19.1083ZM2.25 23V4H0.75V23H2.25ZM7.61111 13.3971H17.3889V11.8971H7.61111V13.3971ZM7.61111 8.22059H17.3889V6.72059H7.61111V8.22059ZM8.77426 18.3676C7.87212 18.3676 6.98863 18.6246 6.22716 19.1083L7.03151 20.3744C7.55251 20.0434 8.15701 19.8676 8.77426 19.8676V18.3676ZM22.75 16.1177C22.75 17.3603 21.7426 18.3676 20.5 18.3676V19.8676C22.5711 19.8676 24.25 18.1887 24.25 16.1177H22.75ZM20.5 1.75C21.7426 1.75 22.75 2.75736 22.75 4H24.25C24.25 1.92893 22.5711 0.25 20.5 0.25V1.75ZM4.5 0.25C2.42893 0.25 0.75 1.92893 0.75 4H2.25C2.25 2.75736 3.25736 1.75 4.5 1.75V0.25Z" fill="#32323E"/>
</svg>
