<svg width="20" height="19" viewBox="0 0 20 19" fill="none" xmlns="http://www.w3.org/2000/svg">
<path d="M1 18H0C0 18.3603 0.193793 18.6927 0.507301 18.8702C0.82081 19.0477 1.20557 19.0429 1.5145 18.8575L1 18ZM6 9C5.44772 9 5 9.44771 5 10C5 10.5523 5.44772 11 6 11V9ZM14 11C14.5523 11 15 10.5523 15 10C15 9.44771 14.5523 9 14 9V11ZM6 5C5.44772 5 5 5.44772 5 6C5 6.55228 5.44772 7 6 7V5ZM14 7C14.5523 7 15 6.55228 15 6C15 5.44772 14.5523 5 14 5V7ZM5.04995 15.57L4.53546 14.7125L5.04995 15.57ZM4 2H16V0H4V2ZM18 4V12H20V4H18ZM16 14H7.10794V16H16V14ZM4.53546 14.7125L0.485504 17.1425L1.5145 18.8575L5.56445 16.4275L4.53546 14.7125ZM2 18V4H0V18H2ZM6 11H14V9H6V11ZM6 7H14V5H6V7ZM7.10794 14C6.20172 14 5.31253 14.2463 4.53546 14.7125L5.56445 16.4275C6.03069 16.1478 6.5642 16 7.10794 16V14ZM18 12C18 13.1046 17.1046 14 16 14V16C18.2091 16 20 14.2091 20 12H18ZM16 2C17.1046 2 18 2.89543 18 4H20C20 1.79086 18.2091 0 16 0V2ZM4 0C1.79086 0 0 1.79086 0 4H2C2 2.89543 2.89543 2 4 2V0Z" fill="#4A4A59"/>
</svg>
