<svg width="25" height="24" viewBox="0 0 25 24" fill="none" xmlns="http://www.w3.org/2000/svg">
<path d="M1.5 8.18359V15.6836" stroke="#32323E" stroke-width="1.5" stroke-linecap="round"/>
<path d="M23.2161 2.26034C23.3982 2.42703 23.5005 2.65311 23.5005 2.88885V20.6658C23.5005 20.9016 23.3982 21.1277 23.2161 21.2943C23.034 21.461 22.787 21.5547 22.5295 21.5547C22.272 21.5547 22.025 21.461 21.8429 21.2943C21.6608 21.1277 21.5585 20.9016 21.5585 20.6658V19.985L14.2763 17.8962V17.9851C14.2794 19.0449 13.8234 20.0627 13.0082 20.8153C12.193 21.5678 11.0851 21.9939 9.92736 22H9.90697C8.7519 21.9988 7.64421 21.5795 6.82563 20.8335C6.00705 20.0875 5.54404 19.0753 5.53763 18.018V15.7149C5.53764 15.6204 5.50469 15.5283 5.44357 15.452C5.38245 15.3758 5.29635 15.3193 5.19779 15.291L3.93554 14.9283C3.83699 14.8999 3.75089 14.8435 3.68977 14.7673C3.62865 14.691 3.5957 14.5989 3.5957 14.5043V9.20946C3.59564 9.11548 3.62812 9.0239 3.68849 8.94788C3.74885 8.87186 3.83398 8.81531 3.93166 8.78636L21.5585 3.57682V2.88885C21.5585 2.65311 21.6608 2.42703 21.8429 2.26034C22.025 2.09365 22.272 2 22.5295 2C22.787 2 23.034 2.09365 23.2161 2.26034Z" stroke="#32323E" stroke-width="1.5"/>
<path d="M11.8328 18.3569C11.9446 18.1064 12.0014 17.8381 12 17.5674V17.2665C12 17.1787 11.9694 17.0933 11.9128 17.0226C11.8561 16.9518 11.7763 16.8995 11.685 16.8732L8.085 15.8393C8.01759 15.8199 7.94615 15.8153 7.87644 15.8259C7.80674 15.8364 7.74073 15.8619 7.68376 15.9002C7.6268 15.9385 7.58048 15.9885 7.54856 16.0463C7.51663 16.104 7.5 16.1678 7.5 16.2326V17.5905C7.5038 18.1349 7.74253 18.6558 8.16408 19.0395C8.58562 19.4232 9.15574 19.6385 9.74999 19.6385H9.76079C10.0563 19.6372 10.3486 19.5826 10.621 19.4778C10.8934 19.373 11.1407 19.2201 11.3486 19.0278C11.5565 18.8355 11.7211 18.6075 11.8328 18.3569Z" stroke="#32323E" stroke-width="1.5"/>
</svg>
