<svg width="24" height="24" viewBox="0 0 24 24" fill="none" xmlns="http://www.w3.org/2000/svg">
<path d="M7.69531 12.4766C8.74135 13.092 10.1059 13.4331 11.5214 13.4331C12.9369 13.4331 14.3015 13.092 15.3475 12.4766" stroke="#32323E" stroke-width="1.5" stroke-linecap="round" stroke-linejoin="round"/>
<path d="M15.3477 5.78125V6.73777" stroke="#32323E" stroke-width="1.5" stroke-linecap="round" stroke-linejoin="round"/>
<path d="M7.69531 5.78125V6.73777" stroke="#32323E" stroke-width="1.5" stroke-linecap="round" stroke-linejoin="round"/>
<path d="M23 5V14.4444C18.2749 14.4444 14.4444 18.2749 14.4444 23H4.9977C2.78856 23 1 21.2091 1 19V5C1 2.79086 2.79086 1 5 1H19C21.2091 1 23 2.79086 23 5Z" stroke="#32323E" stroke-width="1.5"/>
<path d="M24 17H22C19.2386 17 17 19.2386 17 22V24L24 17Z" fill="#32323E"/>
</svg>
