<svg width="14" height="20" viewBox="0 0 14 20" fill="none" xmlns="http://www.w3.org/2000/svg">
<mask id="path-1-inside-1" fill="white">
<path d="M12.0612 2.89609C11.915 2.89852 11.7696 2.91807 11.6278 2.95436V2.62138C11.6083 2.35424 11.5367 2.09375 11.4171 1.85513C11.2975 1.61652 11.1324 1.40459 10.9313 1.23173C10.7303 1.05887 10.4975 0.928563 10.2464 0.848427C9.99529 0.768291 9.73103 0.739939 9.46906 0.765028C9.06884 0.791443 8.68629 0.942569 8.37333 1.1979C8.1714 0.73766 7.80797 0.370748 7.3542 0.169034C6.90044 -0.0326794 6.38905 -0.0546607 5.9202 0.107396C5.67681 0.195683 5.45312 0.332427 5.26219 0.509652C5.07125 0.686876 4.9169 0.901032 4.80812 1.13963C4.6925 1.37559 4.62493 1.63291 4.60947 1.89612C4.59401 2.15934 4.63099 2.42303 4.71817 2.67133L5.78937 5.8263C4.43437 6.07119 3.18018 6.71682 2.18328 7.68265L2.00338 7.86579C1.65182 8.23613 1.4579 8.73266 1.4637 9.24765C1.46425 9.74779 1.64459 10.2304 1.97068 10.6045C1.44727 10.6067 0.946039 10.8199 0.576698 11.1975C0.207358 11.5751 -4.46865e-06 12.0862 0 12.619V12.8605C0.00279676 14.6828 0.688957 16.4354 1.91831 17.76C3.14767 19.0847 4.82745 19.8816 6.61451 19.9878C8.40158 20.0941 10.1611 19.5017 11.5336 18.3318C12.906 17.1618 13.788 15.5025 13.9992 13.6929V4.9772C14.0068 4.71085 13.9626 4.44559 13.8692 4.19666C13.7759 3.94772 13.6351 3.72003 13.455 3.52665C13.2749 3.33327 13.0591 3.17801 12.8199 3.0698C12.5807 2.96159 12.3229 2.90255 12.0612 2.89609ZM12.4946 13.5098C12.3219 14.9571 11.6018 16.2789 10.4872 17.1944C9.37263 18.1099 7.95138 18.547 6.52531 18.4129C5.12559 18.2534 3.83485 17.5674 2.90608 16.4895C1.97732 15.4115 1.47749 14.0193 1.50458 12.5858C1.51951 12.4718 1.57458 12.3672 1.65956 12.2915C1.74454 12.2157 1.85364 12.174 1.96659 12.174C2.07953 12.174 2.18864 12.2157 2.27361 12.2915C2.35859 12.3672 2.41367 12.4718 2.42859 12.5858V12.6856C2.4361 13.7036 2.81494 14.6823 3.49156 15.4318C4.16818 16.1814 5.09427 16.6481 6.08999 16.7415C7.0857 16.8349 8.07997 16.5482 8.8797 15.9371C9.67944 15.3261 10.2276 14.4342 10.4176 13.4348C10.4802 13.1761 10.5104 12.9104 10.5075 12.644V12.5525C10.4873 11.6098 10.1462 10.7036 9.54265 9.98852C9.18433 9.54596 8.73118 9.19285 8.21796 8.95629C7.67416 8.68249 7.07472 8.54276 6.46807 8.54839C5.49404 8.54515 4.5522 8.90323 3.8187 9.55565L3.70422 9.65554C3.62443 9.70217 3.53452 9.72791 3.44255 9.73046C3.31677 9.73046 3.19613 9.67959 3.10719 9.58905C3.01825 9.4985 2.96828 9.3757 2.96828 9.24765C2.96625 9.19113 2.97533 9.13478 2.99499 9.08188C3.01465 9.02899 3.04449 8.98063 3.08276 8.93964L3.19724 8.8231C4.17812 7.86097 5.47465 7.30335 6.83604 7.2581H7.85L6.14916 2.26343C6.12301 2.20752 6.10943 2.14638 6.10943 2.08445C6.10943 2.02253 6.12301 1.96138 6.14916 1.90548C6.17457 1.84794 6.21181 1.79661 6.25836 1.75497C6.30491 1.71333 6.35969 1.68233 6.41901 1.66407C6.53188 1.61821 6.65774 1.61821 6.77062 1.66407C6.88044 1.72248 6.96497 1.8204 7.00776 1.93878L8.97843 7.02502C8.98954 7.05656 9.0113 7.08307 9.03981 7.09982C9.06833 7.11657 9.10176 7.12247 9.13415 7.11648C9.16654 7.11048 9.19579 7.09298 9.21669 7.06708C9.23759 7.04119 9.24878 7.00858 9.24827 6.97507L9.15015 2.87944C9.14174 2.7586 9.17986 2.63918 9.25645 2.54646C9.3405 2.44903 9.45703 2.38675 9.58353 2.37165C9.70523 2.37058 9.82312 2.41484 9.91499 2.4961C10.0069 2.57736 10.0664 2.69002 10.0823 2.81284L10.3767 7.14988C10.3754 7.16114 10.3766 7.17255 10.3803 7.18326C10.3839 7.19397 10.3899 7.20369 10.3978 7.21171C10.4056 7.21972 10.4152 7.22581 10.4257 7.22952C10.4362 7.23323 10.4474 7.23447 10.4585 7.23313H10.5239L11.636 4.79406C11.6723 4.71541 11.7303 4.64918 11.8029 4.60338C11.8754 4.55758 11.9595 4.53417 12.0448 4.53601C12.1692 4.53819 12.2877 4.59002 12.3749 4.68033C12.4621 4.77064 12.5109 4.8922 12.5109 5.01882L12.4946 13.5098ZM3.4262 11.2289C3.90947 11.2358 4.37825 11.0609 4.74271 10.7377L4.90625 10.6045C5.28144 10.3107 5.72974 10.1293 6.20069 10.0808C6.67164 10.0323 7.14655 10.1185 7.57197 10.3298C7.88876 10.4776 8.16838 10.6968 8.38968 10.9708C8.78202 11.4339 8.99944 12.0242 9.00296 12.6357C8.99915 12.7986 8.97721 12.9606 8.93755 13.1185C8.83277 13.7044 8.53032 14.2346 8.08243 14.6176C7.63455 15.0006 7.06934 15.2123 6.48442 15.2163C5.81421 15.2119 5.17279 14.9383 4.69964 14.4551C4.22648 13.9719 3.95985 13.318 3.95771 12.6357V12.5441C3.94203 12.0548 3.75328 11.5878 3.4262 11.2289Z"/>
</mask>
<path d="M12.0612 2.89609C11.915 2.89852 11.7696 2.91807 11.6278 2.95436V2.62138C11.6083 2.35424 11.5367 2.09375 11.4171 1.85513C11.2975 1.61652 11.1324 1.40459 10.9313 1.23173C10.7303 1.05887 10.4975 0.928563 10.2464 0.848427C9.99529 0.768291 9.73103 0.739939 9.46906 0.765028C9.06884 0.791443 8.68629 0.942569 8.37333 1.1979C8.1714 0.73766 7.80797 0.370748 7.3542 0.169034C6.90044 -0.0326794 6.38905 -0.0546607 5.9202 0.107396C5.67681 0.195683 5.45312 0.332427 5.26219 0.509652C5.07125 0.686876 4.9169 0.901032 4.80812 1.13963C4.6925 1.37559 4.62493 1.63291 4.60947 1.89612C4.59401 2.15934 4.63099 2.42303 4.71817 2.67133L5.78937 5.8263C4.43437 6.07119 3.18018 6.71682 2.18328 7.68265L2.00338 7.86579C1.65182 8.23613 1.4579 8.73266 1.4637 9.24765C1.46425 9.74779 1.64459 10.2304 1.97068 10.6045C1.44727 10.6067 0.946039 10.8199 0.576698 11.1975C0.207358 11.5751 -4.46865e-06 12.0862 0 12.619V12.8605C0.00279676 14.6828 0.688957 16.4354 1.91831 17.76C3.14767 19.0847 4.82745 19.8816 6.61451 19.9878C8.40158 20.0941 10.1611 19.5017 11.5336 18.3318C12.906 17.1618 13.788 15.5025 13.9992 13.6929V4.9772C14.0068 4.71085 13.9626 4.44559 13.8692 4.19666C13.7759 3.94772 13.6351 3.72003 13.455 3.52665C13.2749 3.33327 13.0591 3.17801 12.8199 3.0698C12.5807 2.96159 12.3229 2.90255 12.0612 2.89609ZM12.4946 13.5098C12.3219 14.9571 11.6018 16.2789 10.4872 17.1944C9.37263 18.1099 7.95138 18.547 6.52531 18.4129C5.12559 18.2534 3.83485 17.5674 2.90608 16.4895C1.97732 15.4115 1.47749 14.0193 1.50458 12.5858C1.51951 12.4718 1.57458 12.3672 1.65956 12.2915C1.74454 12.2157 1.85364 12.174 1.96659 12.174C2.07953 12.174 2.18864 12.2157 2.27361 12.2915C2.35859 12.3672 2.41367 12.4718 2.42859 12.5858V12.6856C2.4361 13.7036 2.81494 14.6823 3.49156 15.4318C4.16818 16.1814 5.09427 16.6481 6.08999 16.7415C7.0857 16.8349 8.07997 16.5482 8.8797 15.9371C9.67944 15.3261 10.2276 14.4342 10.4176 13.4348C10.4802 13.1761 10.5104 12.9104 10.5075 12.644V12.5525C10.4873 11.6098 10.1462 10.7036 9.54265 9.98852C9.18433 9.54596 8.73118 9.19285 8.21796 8.95629C7.67416 8.68249 7.07472 8.54276 6.46807 8.54839C5.49404 8.54515 4.5522 8.90323 3.8187 9.55565L3.70422 9.65554C3.62443 9.70217 3.53452 9.72791 3.44255 9.73046C3.31677 9.73046 3.19613 9.67959 3.10719 9.58905C3.01825 9.4985 2.96828 9.3757 2.96828 9.24765C2.96625 9.19113 2.97533 9.13478 2.99499 9.08188C3.01465 9.02899 3.04449 8.98063 3.08276 8.93964L3.19724 8.8231C4.17812 7.86097 5.47465 7.30335 6.83604 7.2581H7.85L6.14916 2.26343C6.12301 2.20752 6.10943 2.14638 6.10943 2.08445C6.10943 2.02253 6.12301 1.96138 6.14916 1.90548C6.17457 1.84794 6.21181 1.79661 6.25836 1.75497C6.30491 1.71333 6.35969 1.68233 6.41901 1.66407C6.53188 1.61821 6.65774 1.61821 6.77062 1.66407C6.88044 1.72248 6.96497 1.8204 7.00776 1.93878L8.97843 7.02502C8.98954 7.05656 9.0113 7.08307 9.03981 7.09982C9.06833 7.11657 9.10176 7.12247 9.13415 7.11648C9.16654 7.11048 9.19579 7.09298 9.21669 7.06708C9.23759 7.04119 9.24878 7.00858 9.24827 6.97507L9.15015 2.87944C9.14174 2.7586 9.17986 2.63918 9.25645 2.54646C9.3405 2.44903 9.45703 2.38675 9.58353 2.37165C9.70523 2.37058 9.82312 2.41484 9.91499 2.4961C10.0069 2.57736 10.0664 2.69002 10.0823 2.81284L10.3767 7.14988C10.3754 7.16114 10.3766 7.17255 10.3803 7.18326C10.3839 7.19397 10.3899 7.20369 10.3978 7.21171C10.4056 7.21972 10.4152 7.22581 10.4257 7.22952C10.4362 7.23323 10.4474 7.23447 10.4585 7.23313H10.5239L11.636 4.79406C11.6723 4.71541 11.7303 4.64918 11.8029 4.60338C11.8754 4.55758 11.9595 4.53417 12.0448 4.53601C12.1692 4.53819 12.2877 4.59002 12.3749 4.68033C12.4621 4.77064 12.5109 4.8922 12.5109 5.01882L12.4946 13.5098ZM3.4262 11.2289C3.90947 11.2358 4.37825 11.0609 4.74271 10.7377L4.90625 10.6045C5.28144 10.3107 5.72974 10.1293 6.20069 10.0808C6.67164 10.0323 7.14655 10.1185 7.57197 10.3298C7.88876 10.4776 8.16838 10.6968 8.38968 10.9708C8.78202 11.4339 8.99944 12.0242 9.00296 12.6357C8.99915 12.7986 8.97721 12.9606 8.93755 13.1185C8.83277 13.7044 8.53032 14.2346 8.08243 14.6176C7.63455 15.0006 7.06934 15.2123 6.48442 15.2163C5.81421 15.2119 5.17279 14.9383 4.69964 14.4551C4.22648 13.9719 3.95985 13.318 3.95771 12.6357V12.5441C3.94203 12.0548 3.75328 11.5878 3.4262 11.2289Z" fill="#4A4A59" stroke="#4A4A59" stroke-width="1.65009" mask="url(#path-1-inside-1)"/>
</svg>
